<svg width="24" height="24" viewBox="0 0 24 24" fill="none" xmlns="http://www.w3.org/2000/svg">
<path d="M10.625 18.775L8.7 20.65C8.43333 20.9167 8.1125 21.0458 7.7375 21.0375C7.3625 21.0292 7.04167 20.8917 6.775 20.625C6.50833 20.3583 6.375 20.0375 6.375 19.6625C6.375 19.2875 6.50833 18.9667 6.775 18.7L10.625 14.85V13.375H9.15L5.3 17.225C5.03333 17.4917 4.7125 17.625 4.3375 17.625C3.9625 17.625 3.63333 17.4833 3.35 17.2C3.08333 16.9333 2.95 16.6167 2.95 16.25C2.95 15.8833 3.08333 15.5667 3.35 15.3L5.225 13.375H2.975C2.59167 13.375 2.27083 13.2417 2.0125 12.975C1.75417 12.7083 1.625 12.3833 1.625 12C1.625 11.6167 1.75833 11.2917 2.025 11.025C2.29167 10.7583 2.61667 10.625 3 10.625H5.225L3.35 8.725C3.08333 8.45833 2.95417 8.1375 2.9625 7.7625C2.97083 7.3875 3.10833 7.06667 3.375 6.8C3.64167 6.53333 3.9625 6.4 4.3375 6.4C4.7125 6.4 5.03333 6.53333 5.3 6.8L9.15 10.625H10.625V9.15L6.775 5.325C6.50833 5.05833 6.375 4.7375 6.375 4.3625C6.375 3.9875 6.51667 3.65833 6.8 3.375C7.06667 3.10833 7.38333 2.975 7.75 2.975C8.11667 2.975 8.43333 3.10833 8.7 3.375L10.625 5.225V3C10.625 2.61667 10.7583 2.29167 11.025 2.025C11.2917 1.75833 11.6167 1.625 12 1.625C12.3833 1.625 12.7083 1.75833 12.975 2.025C13.2417 2.29167 13.375 2.61667 13.375 3V5.225L15.275 3.375C15.5417 3.10833 15.8625 2.97917 16.2375 2.9875C16.6125 2.99583 16.9333 3.13333 17.2 3.4C17.4667 3.66667 17.6 3.9875 17.6 4.3625C17.6 4.7375 17.4667 5.05833 17.2 5.325L13.375 9.15V10.625H14.85L18.675 6.8C18.9417 6.53333 19.2625 6.4 19.6375 6.4C20.0125 6.4 20.3417 6.54167 20.625 6.825C20.8917 7.09167 21.025 7.40833 21.025 7.775C21.025 8.14167 20.8917 8.45833 20.625 8.725L18.775 10.625H21C21.3833 10.625 21.7083 10.7583 21.975 11.025C22.2417 11.2917 22.375 11.6167 22.375 12C22.375 12.3833 22.2417 12.7083 21.975 12.975C21.7083 13.2417 21.3833 13.375 21 13.375H18.775L20.625 15.3C20.8917 15.5667 21.0208 15.8875 21.0125 16.2625C21.0042 16.6375 20.8667 16.9583 20.6 17.225C20.3333 17.4917 20.0125 17.625 19.6375 17.625C19.2625 17.625 18.9417 17.4917 18.675 17.225L14.85 13.375H13.375V14.85L17.2 18.7C17.4667 18.9667 17.6 19.2875 17.6 19.6625C17.6 20.0375 17.4583 20.3667 17.175 20.65C16.9083 20.9167 16.5917 21.05 16.225 21.05C15.8583 21.05 15.5417 20.9167 15.275 20.65L13.375 18.775V21.025C13.375 21.4083 13.2417 21.7292 12.975 21.9875C12.7083 22.2458 12.3833 22.375 12 22.375C11.6167 22.375 11.2917 22.2417 11.025 21.975C10.7583 21.7083 10.625 21.3833 10.625 21V18.775Z" fill="black"/>
</svg>
