<svg width="24" height="24" viewBox="0 0 24 24" fill="none" xmlns="http://www.w3.org/2000/svg">
<path d="M5.9749 16.725C6.8249 16.1084 7.75824 15.6292 8.7749 15.2875C9.79157 14.9459 10.8666 14.775 11.9999 14.775C13.1332 14.775 14.2207 14.9584 15.2624 15.325C16.3041 15.6917 17.2249 16.1667 18.0249 16.75C18.5582 16.05 18.9707 15.3125 19.2624 14.5375C19.5541 13.7625 19.6999 12.9167 19.6999 12C19.6999 9.88336 18.9457 8.07086 17.4374 6.56252C15.9291 5.05419 14.1166 4.30002 11.9999 4.30002C9.88324 4.30002 8.07074 5.05419 6.5624 6.56252C5.05407 8.07086 4.2999 9.88336 4.2999 12C4.2999 12.9 4.44157 13.7375 4.7249 14.5125C5.00824 15.2875 5.4249 16.025 5.9749 16.725ZM11.9999 13.225C10.9499 13.225 10.0707 12.875 9.3624 12.175C8.65407 11.475 8.2999 10.6 8.2999 9.55002C8.2999 8.50002 8.65407 7.62086 9.3624 6.91252C10.0707 6.20419 10.9499 5.85002 11.9999 5.85002C13.0499 5.85002 13.9291 6.20419 14.6374 6.91252C15.3457 7.62086 15.6999 8.50002 15.6999 9.55002C15.6999 10.6 15.3457 11.475 14.6374 12.175C13.9291 12.875 13.0499 13.225 11.9999 13.225ZM11.9999 22.85C10.4999 22.85 9.09157 22.5667 7.7749 22C6.45824 21.4334 5.30824 20.6584 4.3249 19.675C3.34157 18.6917 2.56657 17.5417 1.9999 16.225C1.43324 14.9084 1.1499 13.5 1.1499 12C1.1499 10.5 1.43324 9.09169 1.9999 7.77502C2.56657 6.45836 3.34157 5.30836 4.3249 4.32502C5.30824 3.34169 6.45824 2.56669 7.7749 2.00002C9.09157 1.43336 10.4999 1.15002 11.9999 1.15002C13.4999 1.15002 14.9082 1.43336 16.2249 2.00002C17.5416 2.56669 18.6916 3.34169 19.6749 4.32502C20.6582 5.30836 21.4332 6.45836 21.9999 7.77502C22.5666 9.09169 22.8499 10.5 22.8499 12C22.8499 13.5 22.5666 14.9084 21.9999 16.225C21.4332 17.5417 20.6582 18.6917 19.6749 19.675C18.6916 20.6584 17.5416 21.4334 16.2249 22C14.9082 22.5667 13.4999 22.85 11.9999 22.85Z" fill="black"/>
</svg>
