<svg width="24" height="24" viewBox="0 0 24 24" fill="none" xmlns="http://www.w3.org/2000/svg">
<path d="M10.4249 13.575H5.7249C5.29157 13.575 4.92074 13.4209 4.6124 13.1125C4.30407 12.8042 4.1499 12.4334 4.1499 12C4.1499 11.5667 4.30407 11.1959 4.6124 10.8875C4.92074 10.5792 5.29157 10.425 5.7249 10.425H10.4249V5.72502C10.4249 5.29169 10.5791 4.92086 10.8874 4.61252C11.1957 4.30419 11.5666 4.15002 11.9999 4.15002C12.4332 4.15002 12.8041 4.30419 13.1124 4.61252C13.4207 4.92086 13.5749 5.29169 13.5749 5.72502V10.425H18.2749C18.7082 10.425 19.0791 10.5792 19.3874 10.8875C19.6957 11.1959 19.8499 11.5667 19.8499 12C19.8499 12.4334 19.6957 12.8042 19.3874 13.1125C19.0791 13.4209 18.7082 13.575 18.2749 13.575H13.5749V18.275C13.5749 18.7084 13.4207 19.0792 13.1124 19.3875C12.8041 19.6959 12.4332 19.85 11.9999 19.85C11.5666 19.85 11.1957 19.6959 10.8874 19.3875C10.5791 19.0792 10.4249 18.7084 10.4249 18.275V13.575Z" fill="black"/>
</svg>
