<svg width="24" height="24" viewBox="0 0 24 24" fill="none" xmlns="http://www.w3.org/2000/svg">
<path d="M7.67505 21.275V20.325C5.95838 19.5084 4.57088 18.2917 3.51255 16.675C2.45422 15.0584 1.92505 13.2417 1.92505 11.225C1.92505 9.82502 2.18755 8.51669 2.71255 7.30002C3.23755 6.08336 3.95422 5.01669 4.86255 4.10002C5.77088 3.18336 6.83755 2.46252 8.06255 1.93752C9.28755 1.41252 10.5917 1.15002 11.975 1.15002C13.3584 1.15002 14.6625 1.41252 15.8875 1.93752C17.1125 2.46252 18.1834 3.18336 19.1 4.10002C20.0167 5.01669 20.7417 6.08336 21.275 7.30002C21.8084 8.51669 22.075 9.82502 22.075 11.225C22.075 13.2417 21.5459 15.0584 20.4875 16.675C19.4292 18.2917 18.0417 19.5084 16.325 20.325V21.275C16.325 21.7084 16.1709 22.0792 15.8625 22.3875C15.5542 22.6959 15.1834 22.85 14.75 22.85C14.3167 22.85 13.9459 22.6959 13.6375 22.3875C13.3292 22.0792 13.175 21.7084 13.175 21.275V21.225C12.975 21.2584 12.775 21.2792 12.575 21.2875C12.375 21.2959 12.175 21.3 11.975 21.3C11.775 21.3 11.5792 21.2959 11.3875 21.2875C11.1959 21.2792 11.0084 21.2584 10.825 21.225V21.275C10.825 21.7084 10.6709 22.0792 10.3625 22.3875C10.0542 22.6959 9.68338 22.85 9.25005 22.85C8.81672 22.85 8.44588 22.6959 8.13755 22.3875C7.82922 22.0792 7.67505 21.7084 7.67505 21.275ZM10 9.45002H14C14.4167 9.45002 14.7709 9.30419 15.0625 9.01252C15.3542 8.72086 15.5 8.36669 15.5 7.95002C15.5 7.53336 15.3542 7.17919 15.0625 6.88752C14.7709 6.59586 14.4167 6.45002 14 6.45002H10C9.58338 6.45002 9.22922 6.59586 8.93755 6.88752C8.64588 7.17919 8.50005 7.53336 8.50005 7.95002C8.50005 8.36669 8.64588 8.72086 8.93755 9.01252C9.22922 9.30419 9.58338 9.45002 10 9.45002ZM10.375 14.575C10.0917 14.8584 9.95005 15.1959 9.95005 15.5875C9.95005 15.9792 10.1084 16.3334 10.425 16.65C10.7084 16.9334 11.0625 17.075 11.4875 17.075C11.9125 17.075 12.2667 16.9334 12.55 16.65L13.75 15.45C14.0667 15.1334 14.225 14.7584 14.225 14.325C14.225 13.8917 14.0667 13.5167 13.75 13.2L13.625 13.075C13.9084 12.7917 14.05 12.4542 14.05 12.0625C14.05 11.6709 13.8917 11.3167 13.575 11C13.2917 10.7167 12.9375 10.575 12.5125 10.575C12.0875 10.575 11.7334 10.7167 11.45 11L10.25 12.2C9.93338 12.5167 9.77505 12.8917 9.77505 13.325C9.77505 13.7584 9.93338 14.1334 10.25 14.45L10.375 14.575Z" fill="black"/>
</svg>
