<svg width="24" height="24" viewBox="0 0 24 24" fill="none" xmlns="http://www.w3.org/2000/svg">
<path d="M9.77503 15.65L4.37503 14.925C3.72503 14.8417 3.29587 14.4875 3.08753 13.8625C2.8792 13.2375 3.0167 12.6917 3.50003 12.225L14.675 1.50002C14.7917 1.38336 14.9334 1.29586 15.1 1.23752C15.2667 1.17919 15.5 1.15002 15.8 1.15002C16.2667 1.15002 16.6209 1.35002 16.8625 1.75002C17.1042 2.15002 17.1167 2.55836 16.9 2.97502L14.1 8.52502L19.525 9.20002C20.1917 9.28336 20.625 9.63752 20.825 10.2625C21.025 10.8875 20.8834 11.4334 20.4 11.9L9.32503 22.5C9.20837 22.6167 9.0667 22.7042 8.90003 22.7625C8.73337 22.8209 8.50003 22.85 8.20003 22.85C7.73337 22.85 7.37503 22.6542 7.12503 22.2625C6.87503 21.8709 6.85837 21.4667 7.07503 21.05L9.77503 15.65Z" fill="black"/>
</svg>
