<svg width="24" height="24" viewBox="0 0 24 24" fill="none" xmlns="http://www.w3.org/2000/svg">
<path d="M11.9749 21.075C11.5916 21.075 11.2166 21.0042 10.8499 20.8625C10.4832 20.7209 10.1499 20.5084 9.8499 20.225L8.0749 18.6C6.34157 17.0334 4.75407 15.425 3.3124 13.775C1.87074 12.125 1.1499 10.25 1.1499 8.15002C1.1499 6.33336 1.7499 4.81669 2.9499 3.60002C4.1499 2.38336 5.65824 1.77502 7.4749 1.77502C8.3249 1.77502 9.13324 1.92502 9.8999 2.22502C10.6666 2.52502 11.3582 2.96669 11.9749 3.55002C12.5916 2.96669 13.2832 2.52502 14.0499 2.22502C14.8166 1.92502 15.6249 1.77502 16.4749 1.77502C18.2916 1.77502 19.8124 2.38336 21.0374 3.60002C22.2624 4.81669 22.8749 6.33336 22.8749 8.15002C22.8749 10.25 22.1457 12.1292 20.6874 13.7875C19.2291 15.4459 17.6166 17.0667 15.8499 18.65L14.1249 20.25C13.8249 20.5334 13.4874 20.7417 13.1124 20.875C12.7374 21.0084 12.3582 21.075 11.9749 21.075Z" fill="black"/>
</svg>
