<svg width="24" height="24" viewBox="0 0 24 24" fill="none" xmlns="http://www.w3.org/2000/svg">
<path d="M5.2999 11C4.43365 11 3.69209 10.6916 3.0752 10.0747C2.45834 9.45783 2.1499 8.71627 2.1499 7.85002V5.30002C2.1499 4.43377 2.45834 3.69222 3.0752 3.07535C3.69209 2.45847 4.43365 2.15002 5.2999 2.15002H7.8499C8.71615 2.15002 9.45771 2.45847 10.0746 3.07535C10.6915 3.69222 10.9999 4.43377 10.9999 5.30002V7.85002C10.9999 8.71627 10.6915 9.45783 10.0746 10.0747C9.45771 10.6916 8.71615 11 7.8499 11H5.2999ZM5.2999 21.85C4.43365 21.85 3.69209 21.5416 3.0752 20.9247C2.45834 20.3078 2.1499 19.5663 2.1499 18.7V16.15C2.1499 15.2838 2.45834 14.5422 3.0752 13.9253C3.69209 13.3085 4.43365 13 5.2999 13H7.8499C8.71615 13 9.45771 13.3085 10.0746 13.9253C10.6915 14.5422 10.9999 15.2838 10.9999 16.15V18.7C10.9999 19.5663 10.6915 20.3078 10.0746 20.9247C9.45771 21.5416 8.71615 21.85 7.8499 21.85H5.2999ZM16.1499 11C15.2837 11 14.5421 10.6916 13.9252 10.0747C13.3083 9.45783 12.9999 8.71627 12.9999 7.85002V5.30002C12.9999 4.43377 13.3083 3.69222 13.9252 3.07535C14.5421 2.45847 15.2837 2.15002 16.1499 2.15002H18.6999C19.5662 2.15002 20.3077 2.45847 20.9246 3.07535C21.5415 3.69222 21.8499 4.43377 21.8499 5.30002V7.85002C21.8499 8.71627 21.5415 9.45783 20.9246 10.0747C20.3077 10.6916 19.5662 11 18.6999 11H16.1499ZM16.1499 21.85C15.2837 21.85 14.5421 21.5416 13.9252 20.9247C13.3083 20.3078 12.9999 19.5663 12.9999 18.7V16.15C12.9999 15.2838 13.3083 14.5422 13.9252 13.9253C14.5421 13.3085 15.2837 13 16.1499 13H18.6999C19.5662 13 20.3077 13.3085 20.9246 13.9253C21.5415 14.5422 21.8499 15.2838 21.8499 16.15V18.7C21.8499 19.5663 21.5415 20.3078 20.9246 20.9247C20.3077 21.5416 19.5662 21.85 18.6999 21.85H16.1499Z" fill="black"/>
</svg>
