<svg width="24" height="24" viewBox="0 0 24 24" fill="none" xmlns="http://www.w3.org/2000/svg">
<path d="M3.1499 18.7V10.15C3.1499 9.65001 3.25824 9.17918 3.4749 8.73751C3.69157 8.29585 3.9999 7.92501 4.3999 7.62501L10.0999 3.35001C10.6666 2.91668 11.2999 2.70001 11.9999 2.70001C12.6999 2.70001 13.3332 2.91668 13.8999 3.35001L19.5999 7.62501C19.9999 7.92501 20.3082 8.29585 20.5249 8.73751C20.7416 9.17918 20.8499 9.65001 20.8499 10.15V18.7C20.8499 19.5833 20.5457 20.3292 19.9374 20.9375C19.3291 21.5458 18.5832 21.85 17.6999 21.85H15.7749C15.3416 21.85 14.9707 21.6958 14.6624 21.3875C14.3541 21.0792 14.1999 20.7083 14.1999 20.275V15.375C14.1999 14.9417 14.0457 14.5708 13.7374 14.2625C13.4291 13.9542 13.0582 13.8 12.6249 13.8H11.3749C10.9416 13.8 10.5707 13.9542 10.2624 14.2625C9.95407 14.5708 9.7999 14.9417 9.7999 15.375V20.275C9.7999 20.7083 9.64574 21.0792 9.3374 21.3875C9.02907 21.6958 8.65824 21.85 8.2249 21.85H6.2999C5.41657 21.85 4.67074 21.5458 4.0624 20.9375C3.45407 20.3292 3.1499 19.5833 3.1499 18.7Z" fill="black"/>
</svg>
