<svg width="24" height="24" viewBox="0 0 24 24" fill="none" xmlns="http://www.w3.org/2000/svg">
<path d="M9.1249 8.30002C9.45782 8.30002 9.73688 8.18742 9.96208 7.9622C10.1873 7.737 10.2999 7.45794 10.2999 7.12502V6.47502C10.2999 6.14211 10.1873 5.86305 9.96195 5.63785C9.73667 5.41263 9.4575 5.30002 9.12445 5.30002C8.79142 5.30002 8.50824 5.41263 8.2749 5.63785C8.04157 5.86305 7.9249 6.14211 7.9249 6.47502V7.10002C7.9249 7.44002 8.0399 7.72502 8.2699 7.95502C8.4999 8.18502 8.7849 8.30002 9.1249 8.30002ZM9.1249 17.075C9.45782 17.075 9.73688 16.9624 9.96208 16.7372C10.1873 16.512 10.2999 16.2329 10.2999 15.9V13.5C10.2999 13.16 10.1873 12.875 9.96195 12.645C9.73667 12.415 9.4575 12.3 9.12445 12.3C8.79142 12.3 8.50824 12.4126 8.2749 12.6378C8.04157 12.863 7.9249 13.1421 7.9249 13.475V15.875C7.9249 16.215 8.0399 16.5 8.2699 16.73C8.4999 16.96 8.7849 17.075 9.1249 17.075ZM6.2999 22.85C5.43365 22.85 4.69209 22.5416 4.0752 21.9247C3.45834 21.3078 3.1499 20.5663 3.1499 19.7V11.3H20.8499V19.7C20.8499 20.5663 20.5415 21.3078 19.9246 21.9247C19.3077 22.5416 18.5662 22.85 17.6999 22.85H6.2999ZM3.1499 9.30002V4.30002C3.1499 3.43336 3.45834 2.69169 4.0752 2.07502C4.69209 1.45836 5.43365 1.15002 6.2999 1.15002H17.6999C18.5662 1.15002 19.3077 1.45847 19.9246 2.07535C20.5415 2.69222 20.8499 3.43377 20.8499 4.30002V9.30002H3.1499Z" fill="black"/>
</svg>
