<svg width="24" height="24" viewBox="0 0 24 24" fill="none" xmlns="http://www.w3.org/2000/svg">
<path d="M11.999 23.525C11.3663 23.525 10.8249 23.275 10.3749 22.775C9.9249 22.275 9.6999 21.6583 9.6999 20.925H14.2999C14.2999 21.6583 14.0746 22.275 13.624 22.775C13.1734 23.275 12.6318 23.525 11.999 23.525ZM8.9499 19.725C8.61699 19.725 8.33793 19.61 8.11273 19.38C7.88751 19.15 7.7749 18.865 7.7749 18.525C7.7749 18.1921 7.88751 17.913 8.11273 17.6878C8.33793 17.4626 8.61699 17.35 8.9499 17.35H15.0499C15.3828 17.35 15.6619 17.4626 15.8871 17.6879C16.1123 17.9132 16.2249 18.1924 16.2249 18.5254C16.2249 18.8585 16.1123 19.1416 15.8871 19.375C15.6619 19.6083 15.3828 19.725 15.0499 19.725H8.9499ZM8.0249 16.15C6.7249 15.3666 5.67074 14.3291 4.8624 13.0375C4.05407 11.7458 3.6499 10.3333 3.6499 8.79998C3.6499 6.48748 4.46142 4.52185 6.08445 2.9031C7.7075 1.28435 9.67834 0.474976 11.997 0.474976C14.3156 0.474976 16.2874 1.28435 17.9124 2.9031C19.5374 4.52185 20.3499 6.48748 20.3499 8.79998C20.3499 10.35 19.9457 11.7666 19.1374 13.05C18.3291 14.3333 17.2749 15.3666 15.9749 16.15H8.0249Z" fill="black"/>
</svg>
