<svg width="24" height="24" viewBox="0 0 24 24" fill="none" xmlns="http://www.w3.org/2000/svg">
<path d="M6.2999 22.85C5.41657 22.85 4.67074 22.5459 4.0624 21.9375C3.45407 21.3292 3.1499 20.5834 3.1499 19.7V4.30002C3.1499 3.41669 3.45407 2.67086 4.0624 2.06252C4.67074 1.45419 5.41657 1.15002 6.2999 1.15002H17.6999C18.5832 1.15002 19.3291 1.45419 19.9374 2.06252C20.5457 2.67086 20.8499 3.41669 20.8499 4.30002V19.7C20.8499 20.5834 20.5457 21.3292 19.9374 21.9375C19.3291 22.5459 18.5832 22.85 17.6999 22.85H6.2999ZM11.9999 18.7C13.2999 18.7 14.4082 18.2417 15.3249 17.325C16.2416 16.4084 16.6999 15.3 16.6999 14C16.6999 12.7 16.2416 11.5917 15.3249 10.675C14.4082 9.75836 13.2999 9.30002 11.9999 9.30002C10.6999 9.30002 9.59157 9.75836 8.6749 10.675C7.75824 11.5917 7.2999 12.7 7.2999 14C7.2999 15.3 7.75824 16.4084 8.6749 17.325C9.59157 18.2417 10.6999 18.7 11.9999 18.7ZM11.9999 16.775C11.6166 16.775 11.2582 16.7084 10.9249 16.575C10.5916 16.4417 10.2916 16.2417 10.0249 15.975L13.9749 12.025C14.2416 12.2917 14.4416 12.5917 14.5749 12.925C14.7082 13.2584 14.7749 13.6167 14.7749 14C14.7749 14.7667 14.5041 15.4209 13.9624 15.9625C13.4207 16.5042 12.7666 16.775 11.9999 16.775ZM8.5249 7.77502C8.8749 7.77502 9.17074 7.65419 9.4124 7.41252C9.65407 7.17086 9.7749 6.87502 9.7749 6.52502C9.7749 6.19169 9.6499 5.90419 9.3999 5.66252C9.1499 5.42086 8.85824 5.30002 8.5249 5.30002C8.19157 5.30002 7.90407 5.42086 7.6624 5.66252C7.42074 5.90419 7.2999 6.19169 7.2999 6.52502C7.2999 6.85836 7.42074 7.15002 7.6624 7.40002C7.90407 7.65002 8.19157 7.77502 8.5249 7.77502ZM11.9999 7.77502C12.3332 7.77502 12.6207 7.65002 12.8624 7.40002C13.1041 7.15002 13.2249 6.85836 13.2249 6.52502C13.2249 6.19169 13.1041 5.90419 12.8624 5.66252C12.6207 5.42086 12.3332 5.30002 11.9999 5.30002C11.6666 5.30002 11.3791 5.42086 11.1374 5.66252C10.8957 5.90419 10.7749 6.19169 10.7749 6.52502C10.7749 6.85836 10.8957 7.15002 11.1374 7.40002C11.3791 7.65002 11.6666 7.77502 11.9999 7.77502Z" fill="black"/>
</svg>
