<svg width="24" height="24" viewBox="0 0 24 24" fill="none" xmlns="http://www.w3.org/2000/svg">
<g clip-path="url(#clip0_70_380)">
<path d="M10.4 23.95C9.28338 23.95 8.43338 23.6125 7.85005 22.9375C7.26672 22.2625 6.97505 21.475 6.97505 20.575C6.97505 20.025 7.09588 19.4917 7.33755 18.975C7.57922 18.4583 7.96672 18.025 8.50005 17.675C8.83338 17.4583 9.10422 17.1917 9.31255 16.875C9.52088 16.5583 9.68338 16.2167 9.80005 15.85C9.76672 15.8167 9.72922 15.7958 9.68755 15.7875C9.64588 15.7792 9.60838 15.7583 9.57505 15.725L7.12505 16.6C6.77505 16.7333 6.42922 16.8375 6.08755 16.9125C5.74588 16.9875 5.40005 17.025 5.05005 17.025C3.73338 17.025 2.57088 16.4625 1.56255 15.3375C0.554216 14.2125 0.0500488 12.5667 0.0500488 10.4C0.0500488 9.29999 0.383382 8.45415 1.05005 7.86249C1.71672 7.27082 2.47505 6.97499 3.32505 6.97499C3.90838 6.97499 4.46672 7.09582 5.00005 7.33749C5.53338 7.57915 5.97505 7.96665 6.32505 8.49999C6.54172 8.83332 6.80838 9.10415 7.12505 9.31249C7.44172 9.52082 7.78338 9.68332 8.15005 9.79999C8.18338 9.76665 8.20422 9.72915 8.21255 9.68749C8.22088 9.64582 8.24172 9.60832 8.27505 9.57499L7.40005 7.12499C7.26672 6.79165 7.16255 6.45832 7.08755 6.12499C7.01255 5.79165 6.97505 5.45832 6.97505 5.12499C6.97505 3.79165 7.53338 2.61249 8.65005 1.58749C9.76672 0.562488 11.4167 0.0499878 13.6 0.0499878C14.7 0.0499878 15.5459 0.383321 16.1375 1.04999C16.7292 1.71665 17.025 2.47499 17.025 3.32499C17.025 3.87499 16.9042 4.42499 16.6625 4.97499C16.4209 5.52499 16.0334 5.97499 15.5 6.32499C15.1667 6.54165 14.8959 6.80832 14.6875 7.12499C14.4792 7.44165 14.3167 7.78332 14.2 8.14999C14.2334 8.18332 14.2709 8.20415 14.3125 8.21249C14.3542 8.22082 14.3917 8.24165 14.425 8.27499L16.875 7.37499C17.2084 7.24165 17.5417 7.14165 17.875 7.07499C18.2084 7.00832 18.5417 6.97499 18.875 6.97499C20.5917 6.97499 21.8667 7.65832 22.7 9.02499C23.5334 10.3917 23.95 11.9167 23.95 13.6C23.95 14.7167 23.5959 15.5708 22.8875 16.1625C22.1792 16.7542 21.4 17.05 20.55 17.05C20 17.05 19.4709 16.9208 18.9625 16.6625C18.4542 16.4042 18.025 16.0167 17.675 15.5C17.4584 15.1667 17.1917 14.8958 16.875 14.6875C16.5584 14.4792 16.2167 14.3167 15.85 14.2C15.8167 14.2333 15.7959 14.2708 15.7875 14.3125C15.7792 14.3542 15.7584 14.3917 15.725 14.425L16.6 16.875C16.7334 17.2083 16.8375 17.5333 16.9125 17.85C16.9875 18.1667 17.025 18.4917 17.025 18.825C17.025 20.175 16.4667 21.3667 15.35 22.4C14.2334 23.4333 12.5834 23.95 10.4 23.95ZM12 13.3C12.3667 13.3 12.675 13.1708 12.925 12.9125C13.175 12.6542 13.3 12.35 13.3 12C13.3 11.6333 13.175 11.325 12.925 11.075C12.675 10.825 12.3667 10.7 12 10.7C11.65 10.7 11.3459 10.825 11.0875 11.075C10.8292 11.325 10.7 11.6333 10.7 12C10.7 12.35 10.8292 12.6542 11.0875 12.9125C11.3459 13.1708 11.65 13.3 12 13.3Z" fill="black"/>
</g>
<defs>
<clipPath id="clip0_70_380">
<rect width="24" height="24" fill="white"/>
</clipPath>
</defs>
</svg>
