<svg width="24" height="24" viewBox="0 0 24 24" fill="none" xmlns="http://www.w3.org/2000/svg">
<path d="M8.1749 21.85C6.49157 21.85 5.06657 21.2667 3.8999 20.1C2.73324 18.9334 2.1499 17.5084 2.1499 15.825V8.17502C2.1499 6.49169 2.73324 5.06669 3.8999 3.90002C5.06657 2.73336 6.49157 2.15002 8.1749 2.15002H15.8249C17.5082 2.15002 18.9332 2.73336 20.0999 3.90002C21.2666 5.06669 21.8499 6.49169 21.8499 8.17502V15.825C21.8499 17.5084 21.2666 18.9334 20.0999 20.1C18.9332 21.2667 17.5082 21.85 15.8249 21.85H8.1749ZM11.9984 17.45C13.2827 17.45 14.3749 17.0022 15.2749 16.1067C16.1749 15.2111 16.6249 14.1235 16.6249 12.8441C16.6249 11.5647 16.1754 10.475 15.2764 9.57502C14.3774 8.67502 13.2857 8.22502 12.0014 8.22502C10.7171 8.22502 9.6249 8.67453 8.7249 9.57355C7.8249 10.4726 7.3749 11.5642 7.3749 12.8485C7.3749 14.1329 7.82441 15.2209 8.72343 16.1125C9.62244 17.0042 10.7141 17.45 11.9984 17.45ZM12.0066 15.075C11.3855 15.075 10.8582 14.8589 10.4249 14.4266C9.99157 13.9943 9.7749 13.4652 9.7749 12.8391C9.7749 12.213 9.99104 11.6875 10.4233 11.2625C10.8556 10.8375 11.3848 10.625 12.0108 10.625C12.6369 10.625 13.1624 10.8395 13.5874 11.2683C14.0124 11.6972 14.2249 12.2222 14.2249 12.8433C14.2249 13.4645 14.0105 13.9917 13.5816 14.425C13.1527 14.8584 12.6277 15.075 12.0066 15.075ZM11.9999 7.77502C12.2832 7.77502 12.5207 7.67919 12.7124 7.48752C12.9041 7.29586 12.9999 7.05836 12.9999 6.77502C12.9999 6.49169 12.9041 6.25419 12.7124 6.06252C12.5207 5.87086 12.2832 5.77502 11.9999 5.77502C11.7166 5.77502 11.4791 5.87086 11.2874 6.06252C11.0957 6.25419 10.9999 6.49169 10.9999 6.77502C10.9999 7.05836 11.0957 7.29586 11.2874 7.48752C11.4791 7.67919 11.7166 7.77502 11.9999 7.77502Z" fill="black"/>
</svg>
