<svg width="24" height="24" viewBox="0 0 24 24" fill="none" xmlns="http://www.w3.org/2000/svg">
<path d="M8.9999 12.375C9.3399 12.375 9.6249 12.2624 9.8549 12.0372C10.0849 11.812 10.1999 11.5329 10.1999 11.2V8.20002C10.1999 7.86002 10.0849 7.57502 9.8549 7.34502C9.6249 7.11502 9.3399 7.00002 8.9999 7.00002C8.6599 7.00002 8.3749 7.11502 8.1449 7.34502C7.9149 7.57502 7.7999 7.86002 7.7999 8.20002V11.2C7.7999 11.5329 7.9149 11.812 8.1449 12.0372C8.3749 12.2624 8.6599 12.375 8.9999 12.375ZM11.5749 17.8H12.4249C12.8582 17.8 13.2291 17.6459 13.5374 17.3375C13.8457 17.0292 13.9999 16.6584 13.9999 16.225V15.8C13.9999 15.25 13.8041 14.7792 13.4124 14.3875C13.0207 13.9959 12.5499 13.8 11.9999 13.8C11.4499 13.8 10.9791 13.9959 10.5874 14.3875C10.1957 14.7792 9.9999 15.25 9.9999 15.8V16.225C9.9999 16.6584 10.1541 17.0292 10.4624 17.3375C10.7707 17.6459 11.1416 17.8 11.5749 17.8ZM14.9999 12.375C15.3399 12.375 15.6249 12.2624 15.8549 12.0372C16.0849 11.812 16.1999 11.5329 16.1999 11.2V8.20002C16.1999 7.86002 16.0849 7.57502 15.8549 7.34502C15.6249 7.11502 15.3399 7.00002 14.9999 7.00002C14.6599 7.00002 14.3749 7.11502 14.1449 7.34502C13.9149 7.57502 13.7999 7.86002 13.7999 8.20002V11.2C13.7999 11.5329 13.9149 11.812 14.1449 12.0372C14.3749 12.2624 14.6599 12.375 14.9999 12.375ZM11.9999 22.85C10.4832 22.85 9.06668 22.566 7.75023 21.9979C6.43376 21.4299 5.28862 20.6589 4.3148 19.6851C3.34099 18.7113 2.57005 17.5662 2.002 16.2497C1.43394 14.9332 1.1499 13.5167 1.1499 12C1.1499 10.4834 1.43394 9.0668 2.002 7.75035C2.57005 6.43388 3.34099 5.28874 4.3148 4.31492C5.28862 3.34111 6.43376 2.57017 7.75023 2.00212C9.06668 1.43406 10.4832 1.15002 11.9999 1.15002C13.5166 1.15002 14.9331 1.43406 16.2496 2.00212C17.566 2.57017 18.7112 3.34111 19.685 4.31492C20.6588 5.28874 21.4298 6.43388 21.9978 7.75035C22.5659 9.0668 22.8499 10.4834 22.8499 12C22.8499 13.5167 22.5659 14.9332 21.9978 16.2497C21.4298 17.5662 20.6588 18.7113 19.685 19.6851C18.7112 20.6589 17.566 21.4299 16.2496 21.9979C14.9331 22.566 13.5166 22.85 11.9999 22.85Z" fill="black"/>
</svg>
