<svg width="24" height="24" viewBox="0 0 24 24" fill="none" xmlns="http://www.w3.org/2000/svg">
<g clip-path="url(#clip0_70_384)">
<path d="M10.6251 22.15V14.4C10.2251 14.1666 9.89176 13.8416 9.6251 13.425C9.35843 13.0083 9.2251 12.5339 9.2251 12.0017C9.2251 11.2381 9.49718 10.5844 10.0413 10.0406C10.5855 9.49686 11.2397 9.22498 12.0038 9.22498C12.768 9.22498 13.4209 9.49686 13.9626 10.0406C14.5043 10.5844 14.7751 11.2381 14.7751 12.0017C14.7751 12.5339 14.6418 13.0083 14.3751 13.425C14.1084 13.8416 13.7751 14.1666 13.3751 14.4V22.15C13.3751 22.5396 13.2433 22.8661 12.9798 23.1297C12.7162 23.3932 12.3897 23.525 12.0001 23.525C11.6105 23.525 11.2839 23.3932 11.0204 23.1297C10.7569 22.8661 10.6251 22.5396 10.6251 22.15ZM5.0001 19.35C4.71676 19.6333 4.37926 19.7625 3.9876 19.7375C3.59593 19.7125 3.2751 19.55 3.0251 19.25C2.2251 18.25 1.6001 17.1389 1.1501 15.9167C0.700098 14.6944 0.475098 13.3889 0.475098 12C0.475098 10.4052 0.775098 8.90652 1.3751 7.5039C1.9751 6.10128 2.79593 4.87914 3.8376 3.83748C4.87926 2.79581 6.10202 1.97498 7.50587 1.37498C8.90972 0.774976 10.4097 0.474976 12.0059 0.474976C13.602 0.474976 15.1001 0.774976 16.5001 1.37498C17.9001 1.97498 19.1209 2.79581 20.1626 3.83748C21.2043 4.87914 22.0251 6.10128 22.6251 7.5039C23.2251 8.90652 23.5251 10.4052 23.5251 12C23.5251 13.3889 23.3001 14.6944 22.8501 15.9167C22.4001 17.1389 21.7751 18.25 20.9751 19.25C20.7251 19.55 20.4043 19.7125 20.0126 19.7375C19.6209 19.7625 19.2816 19.6315 18.9947 19.3446C18.7316 19.0815 18.6001 18.7625 18.6001 18.3875C18.6001 18.0125 18.7168 17.6666 18.9501 17.35C19.5168 16.6 19.9626 15.7708 20.2876 14.8625C20.6126 13.9541 20.7751 13 20.7751 12C20.7751 9.56664 19.9209 7.49581 18.2126 5.78748C16.5043 4.07914 14.4334 3.22498 12.0001 3.22498C9.56676 3.22498 7.49593 4.07914 5.7876 5.78748C4.07926 7.49581 3.2251 9.56664 3.2251 12C3.2251 13 3.3876 13.9541 3.7126 14.8625C4.0376 15.7708 4.48343 16.6 5.0501 17.35C5.28343 17.6666 5.4001 18.0125 5.4001 18.3875C5.4001 18.7625 5.26676 19.0833 5.0001 19.35ZM8.10552 16.2445C7.81857 16.5315 7.49176 16.6708 7.1251 16.6625C6.75843 16.6541 6.45843 16.5 6.2251 16.2C5.79176 15.6166 5.45426 14.9715 5.2126 14.2644C4.97093 13.5574 4.8501 12.8026 4.8501 12C4.8501 10.0139 5.54495 8.32567 6.93465 6.9354C8.32436 5.54512 10.0119 4.84998 11.9971 4.84998C13.9824 4.84998 15.6709 5.54512 17.0626 6.9354C18.4543 8.32567 19.1501 10.0139 19.1501 12C19.1501 12.7957 19.0293 13.5488 18.7876 14.2593C18.5459 14.9697 18.2084 15.6166 17.7751 16.2C17.5418 16.5 17.2418 16.6541 16.8751 16.6625C16.5084 16.6708 16.1816 16.5315 15.8947 16.2445C15.6316 15.9815 15.5001 15.6666 15.5001 15.3C15.5001 14.9333 15.5918 14.5833 15.7751 14.25C15.9608 13.9166 16.1072 13.5625 16.2144 13.1875C16.3215 12.8125 16.3751 12.4166 16.3751 12C16.3751 10.7968 15.947 9.76689 15.0909 8.91013C14.2348 8.05336 13.2056 7.62498 12.0034 7.62498C10.8012 7.62498 9.77093 8.05336 8.9126 8.91013C8.05426 9.76689 7.6251 10.7968 7.6251 12C7.6251 12.4166 7.67867 12.8112 7.78582 13.1836C7.89296 13.556 8.03938 13.9114 8.2251 14.25C8.40843 14.5833 8.5001 14.9333 8.5001 15.3C8.5001 15.6666 8.36857 15.9815 8.10552 16.2445Z" fill="black"/>
</g>
<defs>
<clipPath id="clip0_70_384">
<rect width="24" height="24" fill="white"/>
</clipPath>
</defs>
</svg>
