<svg width="24" height="24" viewBox="0 0 24 24" fill="none" xmlns="http://www.w3.org/2000/svg">
<g clip-path="url(#clip0_131_201)">
<path d="M11.9943 23.525C10.3982 23.525 8.9001 23.225 7.5001 22.625C6.1001 22.025 4.87926 21.2041 3.8376 20.1625C2.79593 19.1208 1.9751 17.8981 1.3751 16.4942C0.775098 15.0904 0.475098 13.5904 0.475098 11.9942C0.475098 10.3981 0.775098 8.89998 1.3751 7.49998C1.9751 6.09998 2.79593 4.87914 3.8376 3.83748C4.87926 2.79581 6.10141 1.97498 7.50402 1.37498C8.90664 0.774976 10.4053 0.474976 12.0001 0.474976H13.3751V9.59998C13.7751 9.83331 14.1084 10.1583 14.3751 10.575C14.6418 10.9916 14.7751 11.4661 14.7751 11.9983C14.7751 12.7619 14.503 13.4156 13.9588 13.9593C13.4147 14.5031 12.7605 14.775 11.9963 14.775C11.2322 14.775 10.5793 14.5031 10.0376 13.9593C9.49593 13.4156 9.2251 12.7619 9.2251 11.9983C9.2251 11.4661 9.35843 10.9916 9.6251 10.575C9.89176 10.1583 10.2251 9.83331 10.6251 9.59998V7.84998C9.74176 8.13331 9.02093 8.65414 8.4626 9.41248C7.90426 10.1708 7.6251 11.0333 7.6251 12C7.6251 13.2031 8.05316 14.2331 8.90927 15.0898C9.76541 15.9466 10.7946 16.375 11.9968 16.375C13.199 16.375 14.2293 15.9473 15.0876 15.0921C15.9459 14.2368 16.3751 13.2086 16.3751 12.0076C16.3751 11.3525 16.2459 10.7416 15.9876 10.175C15.7293 9.60831 15.3751 9.12498 14.9251 8.72498L16.8751 6.77498C17.5751 7.42498 18.1293 8.1976 18.5376 9.09285C18.9459 9.98812 19.1501 10.9572 19.1501 12C19.1501 13.9861 18.4552 15.6743 17.0655 17.0646C15.6758 18.4548 13.9883 19.15 12.003 19.15C10.0177 19.15 8.32926 18.4548 6.9376 17.0646C5.54593 15.6743 4.8501 13.9861 4.8501 12C4.8501 10.2444 5.39593 8.71797 6.4876 7.42077C7.57926 6.12357 8.95843 5.30831 10.6251 4.97498V3.34998C8.5251 3.68331 6.76676 4.65691 5.3501 6.27077C3.93343 7.88462 3.2251 9.79436 3.2251 12C3.2251 14.4333 4.07926 16.5041 5.7876 18.2125C7.49593 19.9208 9.56676 20.775 12.0001 20.775C14.4334 20.775 16.5043 19.9208 18.2126 18.2125C19.9209 16.5041 20.7751 14.4343 20.7751 12.0029C20.7751 10.751 20.53 9.57619 20.0399 8.47863C19.5498 7.38108 18.8782 6.42986 18.0251 5.62498L19.9751 3.67498C21.0751 4.72498 21.9418 5.96452 22.5751 7.3936C23.2084 8.8227 23.5251 10.3621 23.5251 12.0118C23.5251 13.6039 23.2251 15.1 22.6251 16.5C22.0251 17.9 21.2043 19.1208 20.1626 20.1625C19.1209 21.2041 17.8982 22.025 16.4943 22.625C15.0905 23.225 13.5905 23.525 11.9943 23.525Z" fill="black"/>
</g>
<defs>
<clipPath id="clip0_131_201">
<rect width="24" height="24" fill="white"/>
</clipPath>
</defs>
</svg>
