<svg width="24" height="24" viewBox="0 0 24 24" fill="none" xmlns="http://www.w3.org/2000/svg">
<path d="M7.4751 10.8921C7.4751 11.7071 7.67093 12.4497 8.0626 13.1198C8.45426 13.79 8.96676 14.325 9.6001 14.725C9.41676 14.4917 9.27926 14.2337 9.1876 13.951C9.09593 13.6684 9.0501 13.368 9.0501 13.05C9.0501 12.6667 9.1251 12.2959 9.2751 11.9375C9.4251 11.5792 9.64177 11.2584 9.9251 10.975L12.0001 8.92502L14.0751 10.975C14.3584 11.2584 14.5751 11.5792 14.7251 11.9375C14.8751 12.2959 14.9501 12.6667 14.9501 13.05C14.9501 13.368 14.9043 13.6684 14.8126 13.951C14.7209 14.2337 14.5834 14.4917 14.4001 14.725C15.0334 14.325 15.5459 13.7908 15.9376 13.1223C16.3293 12.4538 16.5251 11.7131 16.5251 10.9C16.5251 10.0742 16.3084 9.30107 15.8751 8.58065C15.4418 7.86023 14.8584 7.29169 14.1251 6.87502L13.7751 7.27502C13.6918 7.37502 13.5923 7.45836 13.4766 7.52502C13.361 7.59169 13.2358 7.62502 13.1009 7.62502C12.8504 7.62502 12.6376 7.53792 12.4626 7.36372C12.2876 7.18954 12.2001 6.97664 12.2001 6.72502V4.65002L11.4626 5.07502C10.9709 5.35836 10.4293 5.77086 9.8376 6.31252C9.24593 6.85419 8.70426 7.50836 8.2126 8.27502C7.72093 9.04169 7.4751 9.91404 7.4751 10.8921ZM12.0001 11.025L10.9751 12.025C10.8418 12.1584 10.7376 12.3167 10.6626 12.5C10.5876 12.6834 10.5501 12.8681 10.5501 13.0542C10.5501 13.445 10.6925 13.7754 10.9772 14.0452C11.2619 14.3151 11.6036 14.45 12.0022 14.45C12.4008 14.45 12.7418 14.3147 13.0251 14.044C13.3084 13.7734 13.4501 13.442 13.4501 13.05C13.4501 12.8667 13.4126 12.6834 13.3376 12.5C13.2626 12.3167 13.1584 12.1584 13.0251 12.025L12.0001 11.025ZM5.6251 23.725C4.75885 23.725 4.01728 23.4166 3.4004 22.7997C2.78353 22.1828 2.4751 21.4413 2.4751 20.575V5.42502C2.4751 4.00877 2.97936 2.79638 3.9879 1.78785C4.99645 0.779299 6.20885 0.275024 7.6251 0.275024H16.3751C17.7913 0.275024 19.0037 0.779299 20.0123 1.78785C21.0208 2.79638 21.5251 4.00877 21.5251 5.42502V20.575C21.5251 21.4413 21.2167 22.1828 20.5998 22.7997C19.9829 23.4166 19.2413 23.725 18.3751 23.725H5.6251ZM8.8001 16.625C9.3501 16.625 9.79593 16.4584 10.1376 16.125C10.4793 15.7917 11.1001 15.625 12.0001 15.625C12.9001 15.625 13.5334 15.7917 13.9001 16.125C14.2668 16.4584 14.7001 16.625 15.2001 16.625C15.7001 16.625 16.1293 16.4584 16.4876 16.125C16.8459 15.7917 17.4751 15.625 18.3751 15.625V5.42502C18.3751 4.87502 18.1793 4.40419 17.7876 4.01252C17.3959 3.62086 16.9251 3.42502 16.3751 3.42502H7.6251C7.0751 3.42502 6.60426 3.62086 6.2126 4.01252C5.82093 4.40419 5.6251 4.87502 5.6251 5.42502V15.625C6.5251 15.625 7.14176 15.7917 7.4751 16.125C7.80843 16.4584 8.2501 16.625 8.8001 16.625Z" fill="black"/>
</svg>
